<?xml version="1.0" encoding="utf-8"?>
<!-- Generator: Adobe Illustrator 24.3.0, SVG Export Plug-In . SVG Version: 6.00 Build 0)  -->
<svg version="1.1" id="Layer_1" xmlns="http://www.w3.org/2000/svg" xmlns:xlink="http://www.w3.org/1999/xlink" x="0px" y="0px"
	 viewBox="0 0 2000 2000" style="enable-background:new 0 0 2000 2000;" xml:space="preserve">
<style type="text/css">
	.st0{fill:url(#SVGID_1_);}
	.st1{fill:url(#SVGID_2_);}
	.st2{fill:url(#SVGID_3_);}
	.st3{fill:url(#SVGID_4_);}
	.st4{fill:url(#SVGID_5_);}
	.st5{fill:url(#SVGID_6_);}
	.st6{fill:url(#SVGID_7_);}
	.st7{fill:url(#SVGID_8_);}
	.st8{fill:url(#SVGID_9_);}
	.st9{fill:url(#SVGID_10_);}
	.st10{fill:url(#SVGID_11_);}
	.st11{fill:url(#SVGID_12_);}
	.st12{fill:url(#SVGID_13_);}
	.st13{fill:url(#SVGID_14_);}
	.st14{fill:url(#SVGID_15_);}
	.st15{fill:url(#SVGID_16_);}
	.st16{fill:url(#SVGID_17_);}
	.st17{fill:url(#SVGID_18_);}
	.st18{fill:url(#SVGID_19_);}
	.st19{fill:url(#SVGID_20_);}
	.st20{fill:url(#SVGID_21_);}
	.st21{fill:url(#SVGID_22_);}
	.st22{fill:url(#SVGID_23_);}
	.st23{fill:url(#SVGID_24_);}
	.st24{fill:url(#SVGID_25_);}
	.st25{fill:url(#SVGID_26_);}
	.st26{fill:url(#SVGID_27_);}
	.st27{fill:url(#SVGID_28_);}
	.st28{fill:url(#SVGID_29_);}
	.st29{fill:url(#SVGID_30_);}
	.st30{fill:url(#SVGID_31_);}
	.st31{fill:url(#SVGID_32_);}
	.st32{fill:url(#SVGID_33_);}
	.st33{fill:url(#SVGID_34_);}
</style>
<rect width="2000" height="2000"/>
<g>
	<radialGradient id="SVGID_1_" cx="1071.4706" cy="515.2353" r="743.2375" gradientUnits="userSpaceOnUse">
		<stop  offset="0" style="stop-color:#FFFBCC"/>
		<stop  offset="0.1171" style="stop-color:#FBEEB7"/>
		<stop  offset="0.3487" style="stop-color:#EFD88C"/>
		<stop  offset="0.3708" style="stop-color:#EED688"/>
		<stop  offset="0.6854" style="stop-color:#EBBB10"/>
		<stop  offset="1" style="stop-color:#C3922E"/>
	</radialGradient>
	<polygon class="st0" points="735.13,1277.27 743.37,1277.27 739.25,1265.49 	"/>
	<radialGradient id="SVGID_2_" cx="1071.4706" cy="515.2353" r="743.2375" gradientUnits="userSpaceOnUse">
		<stop  offset="0" style="stop-color:#FFFBCC"/>
		<stop  offset="0.1171" style="stop-color:#FBEEB7"/>
		<stop  offset="0.3487" style="stop-color:#EFD88C"/>
		<stop  offset="0.3708" style="stop-color:#EED688"/>
		<stop  offset="0.6854" style="stop-color:#EBBB10"/>
		<stop  offset="1" style="stop-color:#C3922E"/>
	</radialGradient>
	<path class="st1" d="M948.46,1257.83h-4.56l5.28,8.44c1.5-0.19,4.95-0.92,4.95-4.22C954.13,1257.83,948.46,1257.83,948.46,1257.83z
		"/>
	<radialGradient id="SVGID_3_" cx="1071.4706" cy="515.2353" r="743.2375" gradientUnits="userSpaceOnUse">
		<stop  offset="0" style="stop-color:#FFFBCC"/>
		<stop  offset="0.1171" style="stop-color:#FBEEB7"/>
		<stop  offset="0.3487" style="stop-color:#EFD88C"/>
		<stop  offset="0.3708" style="stop-color:#EED688"/>
		<stop  offset="0.6854" style="stop-color:#EBBB10"/>
		<stop  offset="1" style="stop-color:#C3922E"/>
	</radialGradient>
	<path class="st2" d="M1026.03,1257.3c-3.88,0-6.98,3.1-6.98,6.98c0,3.88,3.1,6.98,6.98,6.98c3.88,0,6.98-3.1,6.98-6.98
		C1033.01,1260.4,1029.91,1257.3,1026.03,1257.3z"/>
	<radialGradient id="SVGID_4_" cx="1071.4706" cy="515.2353" r="743.2375" gradientUnits="userSpaceOnUse">
		<stop  offset="0" style="stop-color:#FFFBCC"/>
		<stop  offset="0.1171" style="stop-color:#FBEEB7"/>
		<stop  offset="0.3487" style="stop-color:#EFD88C"/>
		<stop  offset="0.3708" style="stop-color:#EED688"/>
		<stop  offset="0.6854" style="stop-color:#EBBB10"/>
		<stop  offset="1" style="stop-color:#C3922E"/>
	</radialGradient>
	<path class="st3" d="M1066.41,1257.83h-4.56l5.28,8.44c1.5-0.19,4.95-0.92,4.95-4.22
		C1072.09,1257.83,1066.41,1257.83,1066.41,1257.83z"/>
	<radialGradient id="SVGID_5_" cx="1071.4706" cy="515.2353" r="743.2375" gradientUnits="userSpaceOnUse">
		<stop  offset="0" style="stop-color:#FFFBCC"/>
		<stop  offset="0.1171" style="stop-color:#FBEEB7"/>
		<stop  offset="0.3487" style="stop-color:#EFD88C"/>
		<stop  offset="0.3708" style="stop-color:#EED688"/>
		<stop  offset="0.6854" style="stop-color:#EBBB10"/>
		<stop  offset="1" style="stop-color:#C3922E"/>
	</radialGradient>
	<polygon class="st4" points="654.99,1277.27 663.23,1277.27 659.11,1265.49 	"/>
	<radialGradient id="SVGID_6_" cx="1071.4706" cy="515.2353" r="743.2375" gradientUnits="userSpaceOnUse">
		<stop  offset="0" style="stop-color:#FFFBCC"/>
		<stop  offset="0.1171" style="stop-color:#FBEEB7"/>
		<stop  offset="0.3487" style="stop-color:#EFD88C"/>
		<stop  offset="0.3708" style="stop-color:#EED688"/>
		<stop  offset="0.6854" style="stop-color:#EBBB10"/>
		<stop  offset="1" style="stop-color:#C3922E"/>
	</radialGradient>
	<path class="st5" d="M1148.3,1262.05c0-4.22-5.67-4.22-5.67-4.22h-4.56l5.28,8.44C1144.86,1266.12,1148.3,1265.39,1148.3,1262.05z"
		/>
	<radialGradient id="SVGID_7_" cx="1071.4706" cy="515.2353" r="743.2375" gradientUnits="userSpaceOnUse">
		<stop  offset="0" style="stop-color:#FFFBCC"/>
		<stop  offset="0.1171" style="stop-color:#FBEEB7"/>
		<stop  offset="0.3487" style="stop-color:#EFD88C"/>
		<stop  offset="0.3708" style="stop-color:#EED688"/>
		<stop  offset="0.6854" style="stop-color:#EBBB10"/>
		<stop  offset="1" style="stop-color:#C3922E"/>
	</radialGradient>
	<path class="st6" d="M835.98,1257.3c-3.88,0-6.98,3.1-6.98,6.98c0,3.88,3.1,6.98,6.98,6.98c3.88,0,6.98-3.1,6.98-6.98
		C842.96,1260.4,839.85,1257.3,835.98,1257.3z"/>
	<radialGradient id="SVGID_8_" cx="1071.4706" cy="515.2353" r="743.2375" gradientUnits="userSpaceOnUse">
		<stop  offset="0" style="stop-color:#FFFBCC"/>
		<stop  offset="0.1171" style="stop-color:#FBEEB7"/>
		<stop  offset="0.3487" style="stop-color:#EFD88C"/>
		<stop  offset="0.3708" style="stop-color:#EED688"/>
		<stop  offset="0.6854" style="stop-color:#EBBB10"/>
		<stop  offset="1" style="stop-color:#C3922E"/>
	</radialGradient>
	<polygon class="st7" points="625.03,1272.23 630.21,1257.78 619.79,1257.78 	"/>
	<radialGradient id="SVGID_9_" cx="1071.4706" cy="515.2353" r="743.2375" gradientUnits="userSpaceOnUse">
		<stop  offset="0" style="stop-color:#FFFBCC"/>
		<stop  offset="0.1171" style="stop-color:#FBEEB7"/>
		<stop  offset="0.3487" style="stop-color:#EFD88C"/>
		<stop  offset="0.3708" style="stop-color:#EED688"/>
		<stop  offset="0.6854" style="stop-color:#EBBB10"/>
		<stop  offset="1" style="stop-color:#C3922E"/>
	</radialGradient>
	<path class="st8" d="M992.14,1262.05c0-4.22-5.67-4.22-5.67-4.22h-4.56l5.28,8.44C988.7,1266.12,992.14,1265.39,992.14,1262.05z"/>
	<radialGradient id="SVGID_10_" cx="1071.4706" cy="515.2353" r="743.2375" gradientUnits="userSpaceOnUse">
		<stop  offset="0" style="stop-color:#FFFBCC"/>
		<stop  offset="0.1171" style="stop-color:#FBEEB7"/>
		<stop  offset="0.3487" style="stop-color:#EFD88C"/>
		<stop  offset="0.3708" style="stop-color:#EED688"/>
		<stop  offset="0.6854" style="stop-color:#EBBB10"/>
		<stop  offset="1" style="stop-color:#C3922E"/>
	</radialGradient>
	<polygon class="st9" points="857.56,915.51 793.78,915.51 668.41,1069.72 668.41,968.29 617.29,997.92 617.29,1221.3 
		668.41,1221.3 668.41,1137.43 697.24,1105.1 791.6,1221.3 858.43,1221.3 731.31,1071.03 	"/>
	<radialGradient id="SVGID_11_" cx="1071.4706" cy="515.2353" r="743.2375" gradientUnits="userSpaceOnUse">
		<stop  offset="0" style="stop-color:#FFFBCC"/>
		<stop  offset="0.1171" style="stop-color:#FBEEB7"/>
		<stop  offset="0.3487" style="stop-color:#EFD88C"/>
		<stop  offset="0.3708" style="stop-color:#EED688"/>
		<stop  offset="0.6854" style="stop-color:#EBBB10"/>
		<stop  offset="1" style="stop-color:#C3922E"/>
	</radialGradient>
	<polygon class="st10" points="668.41,831.68 617.29,831.68 617.29,922.79 668.41,893.16 	"/>
	<radialGradient id="SVGID_12_" cx="1071.4706" cy="515.2353" r="743.2375" gradientUnits="userSpaceOnUse">
		<stop  offset="0" style="stop-color:#FFFBCC"/>
		<stop  offset="0.1171" style="stop-color:#FBEEB7"/>
		<stop  offset="0.3487" style="stop-color:#EFD88C"/>
		<stop  offset="0.3708" style="stop-color:#EED688"/>
		<stop  offset="0.6854" style="stop-color:#EBBB10"/>
		<stop  offset="1" style="stop-color:#C3922E"/>
	</radialGradient>
	<polygon class="st11" points="1103.5,966.62 1103.5,915.51 899.5,915.51 899.5,1221.3 1103.5,1221.3 1103.5,1170.19 
		950.61,1170.19 950.61,1093.74 1077.73,1093.74 1077.73,1043.07 950.61,1043.07 950.61,966.62 	"/>
	<radialGradient id="SVGID_13_" cx="1071.4706" cy="515.2353" r="743.2375" gradientUnits="userSpaceOnUse">
		<stop  offset="0" style="stop-color:#FFFBCC"/>
		<stop  offset="0.1171" style="stop-color:#FBEEB7"/>
		<stop  offset="0.3487" style="stop-color:#EFD88C"/>
		<stop  offset="0.3708" style="stop-color:#EED688"/>
		<stop  offset="0.6854" style="stop-color:#EBBB10"/>
		<stop  offset="1" style="stop-color:#C3922E"/>
	</radialGradient>
	<path class="st12" d="M625.03,1287.5l13.52-35.34h-27.1L625.03,1287.5z M625.03,1272.23l-5.24-14.45h10.42L625.03,1272.23z"/>
	<radialGradient id="SVGID_14_" cx="1071.4706" cy="515.2353" r="743.2375" gradientUnits="userSpaceOnUse">
		<stop  offset="0" style="stop-color:#FFFBCC"/>
		<stop  offset="0.1171" style="stop-color:#FBEEB7"/>
		<stop  offset="0.3487" style="stop-color:#EFD88C"/>
		<stop  offset="0.3708" style="stop-color:#EED688"/>
		<stop  offset="0.6854" style="stop-color:#EBBB10"/>
		<stop  offset="1" style="stop-color:#C3922E"/>
	</radialGradient>
	<path class="st13" d="M645.58,1286.1h6.11l1.45-3.93h11.93l1.5,3.93h6.11l-13.57-34.91L645.58,1286.1z M654.99,1277.27l4.12-11.78
		l4.12,11.78H654.99z"/>
	<radialGradient id="SVGID_15_" cx="1071.4706" cy="515.2353" r="743.2375" gradientUnits="userSpaceOnUse">
		<stop  offset="0" style="stop-color:#FFFBCC"/>
		<stop  offset="0.1171" style="stop-color:#FBEEB7"/>
		<stop  offset="0.3487" style="stop-color:#EFD88C"/>
		<stop  offset="0.3708" style="stop-color:#EED688"/>
		<stop  offset="0.6854" style="stop-color:#EBBB10"/>
		<stop  offset="1" style="stop-color:#C3922E"/>
	</radialGradient>
	<path class="st14" d="M702.07,1257.35c3.1,0,5.96,1.26,8,3.3l3.97-3.98c-3.05-3.1-7.27-4.99-11.97-4.99
		c-9.94,0-17.02,7.22-17.02,17.45c0,10.67,7.66,17.45,17.02,17.45c4.7,0,8.92-1.89,11.97-4.94l-3.97-4.02c-2.04,2.04-4.9,3.3-8,3.3
		c-6.25,0-11.25-4.51-11.25-11.78C690.82,1262.29,695.08,1257.35,702.07,1257.35z"/>
	<radialGradient id="SVGID_16_" cx="1071.4706" cy="515.2353" r="743.2375" gradientUnits="userSpaceOnUse">
		<stop  offset="0" style="stop-color:#FFFBCC"/>
		<stop  offset="0.1171" style="stop-color:#FBEEB7"/>
		<stop  offset="0.3487" style="stop-color:#EFD88C"/>
		<stop  offset="0.3708" style="stop-color:#EED688"/>
		<stop  offset="0.6854" style="stop-color:#EBBB10"/>
		<stop  offset="1" style="stop-color:#C3922E"/>
	</radialGradient>
	<path class="st15" d="M725.73,1286.1h6.11l1.45-3.93h11.93l1.5,3.93h6.11l-13.57-34.91L725.73,1286.1z M735.13,1277.27l4.12-11.78
		l4.12,11.78H735.13z"/>
	<radialGradient id="SVGID_17_" cx="1071.4706" cy="515.2353" r="743.2375" gradientUnits="userSpaceOnUse">
		<stop  offset="0" style="stop-color:#FFFBCC"/>
		<stop  offset="0.1171" style="stop-color:#FBEEB7"/>
		<stop  offset="0.3487" style="stop-color:#EFD88C"/>
		<stop  offset="0.3708" style="stop-color:#EED688"/>
		<stop  offset="0.6854" style="stop-color:#EBBB10"/>
		<stop  offset="1" style="stop-color:#C3922E"/>
	</radialGradient>
	<polygon class="st16" points="763.49,1257.35 770.62,1257.35 770.62,1286.1 776.24,1286.1 776.24,1257.35 783.37,1257.35 
		783.37,1252.16 763.49,1252.16 	"/>
	<radialGradient id="SVGID_18_" cx="1071.4706" cy="515.2353" r="743.2375" gradientUnits="userSpaceOnUse">
		<stop  offset="0" style="stop-color:#FFFBCC"/>
		<stop  offset="0.1171" style="stop-color:#FBEEB7"/>
		<stop  offset="0.3487" style="stop-color:#EFD88C"/>
		<stop  offset="0.3708" style="stop-color:#EED688"/>
		<stop  offset="0.6854" style="stop-color:#EBBB10"/>
		<stop  offset="1" style="stop-color:#C3922E"/>
	</radialGradient>
	<polygon class="st17" points="805.19,1257.35 808.97,1257.35 808.97,1252.16 795.74,1252.16 795.74,1257.35 799.52,1257.35 
		799.52,1280.91 795.54,1280.91 795.54,1286.1 809.16,1286.1 809.16,1280.91 805.19,1280.91 	"/>
	<radialGradient id="SVGID_19_" cx="1071.4706" cy="515.2353" r="743.2375" gradientUnits="userSpaceOnUse">
		<stop  offset="0" style="stop-color:#FFFBCC"/>
		<stop  offset="0.1171" style="stop-color:#FBEEB7"/>
		<stop  offset="0.3487" style="stop-color:#EFD88C"/>
		<stop  offset="0.3708" style="stop-color:#EED688"/>
		<stop  offset="0.6854" style="stop-color:#EBBB10"/>
		<stop  offset="1" style="stop-color:#C3922E"/>
	</radialGradient>
	<path class="st18" d="M835.98,1251.67c-6.93,0-12.6,5.67-12.6,12.6c0,6.93,5.67,12.61,12.6,12.61c6.93,0,12.6-5.67,12.6-12.61
		C848.58,1257.35,842.91,1251.67,835.98,1251.67z M835.98,1271.26c-3.88,0-6.98-3.1-6.98-6.98c0-3.88,3.1-6.98,6.98-6.98
		c3.88,0,6.98,3.1,6.98,6.98C842.96,1268.16,839.85,1271.26,835.98,1271.26z"/>
	<radialGradient id="SVGID_20_" cx="1071.4706" cy="515.2353" r="743.2375" gradientUnits="userSpaceOnUse">
		<stop  offset="0" style="stop-color:#FFFBCC"/>
		<stop  offset="0.1171" style="stop-color:#FBEEB7"/>
		<stop  offset="0.3487" style="stop-color:#EFD88C"/>
		<stop  offset="0.3708" style="stop-color:#EED688"/>
		<stop  offset="0.6854" style="stop-color:#EBBB10"/>
		<stop  offset="1" style="stop-color:#C3922E"/>
	</radialGradient>
	<rect x="824.63" y="1280.47" class="st19" width="22.4" height="5.62"/>
	<radialGradient id="SVGID_21_" cx="1071.4706" cy="515.2353" r="743.2375" gradientUnits="userSpaceOnUse">
		<stop  offset="0" style="stop-color:#FFFBCC"/>
		<stop  offset="0.1171" style="stop-color:#FBEEB7"/>
		<stop  offset="0.3487" style="stop-color:#EFD88C"/>
		<stop  offset="0.3708" style="stop-color:#EED688"/>
		<stop  offset="0.6854" style="stop-color:#EBBB10"/>
		<stop  offset="1" style="stop-color:#C3922E"/>
	</radialGradient>
	<polygon class="st20" points="887.71,1276.3 870.79,1252.16 865.07,1252.16 865.07,1286.1 870.74,1286.1 870.74,1261.95 
		887.61,1286.1 893.33,1286.1 893.33,1252.16 887.71,1252.16 	"/>
	<radialGradient id="SVGID_22_" cx="1071.4706" cy="515.2353" r="743.2375" gradientUnits="userSpaceOnUse">
		<stop  offset="0" style="stop-color:#FFFBCC"/>
		<stop  offset="0.1171" style="stop-color:#FBEEB7"/>
		<stop  offset="0.3487" style="stop-color:#EFD88C"/>
		<stop  offset="0.3708" style="stop-color:#EED688"/>
		<stop  offset="0.6854" style="stop-color:#EBBB10"/>
		<stop  offset="1" style="stop-color:#C3922E"/>
	</radialGradient>
	<path class="st21" d="M948.46,1252.16h-11.3v5.67l5.38,8.48h-5.38v19.78h5.67v-14.16h5.62c0,0,11.3,0,11.3-9.89
		C959.75,1252.16,948.46,1252.16,948.46,1252.16z M949.18,1266.27l-5.28-8.44h4.56c0,0,5.67,0,5.67,4.22
		C954.13,1265.35,950.69,1266.07,949.18,1266.27z"/>
	<radialGradient id="SVGID_23_" cx="1071.4706" cy="515.2353" r="743.2375" gradientUnits="userSpaceOnUse">
		<stop  offset="0" style="stop-color:#FFFBCC"/>
		<stop  offset="0.1171" style="stop-color:#FBEEB7"/>
		<stop  offset="0.3487" style="stop-color:#EFD88C"/>
		<stop  offset="0.3708" style="stop-color:#EED688"/>
		<stop  offset="0.6854" style="stop-color:#EBBB10"/>
		<stop  offset="1" style="stop-color:#C3922E"/>
	</radialGradient>
	<path class="st22" d="M997.81,1262.05c0-9.89-11.34-9.89-11.34-9.89h-11.3v5.67l5.38,8.48h-5.38v19.78h5.67v-14.16h3.25l8.82,14.16
		h6.64l-9.21-14.74C993.64,1270.44,997.81,1268.06,997.81,1262.05z M981.91,1257.83h4.56c0,0,5.67,0,5.67,4.22
		c0,3.34-3.44,4.07-4.95,4.22L981.91,1257.83z"/>
	<radialGradient id="SVGID_24_" cx="1071.4706" cy="515.2353" r="743.2375" gradientUnits="userSpaceOnUse">
		<stop  offset="0" style="stop-color:#FFFBCC"/>
		<stop  offset="0.1171" style="stop-color:#FBEEB7"/>
		<stop  offset="0.3487" style="stop-color:#EFD88C"/>
		<stop  offset="0.3708" style="stop-color:#EED688"/>
		<stop  offset="0.6854" style="stop-color:#EBBB10"/>
		<stop  offset="1" style="stop-color:#C3922E"/>
	</radialGradient>
	<path class="st23" d="M1026.03,1251.67c-6.93,0-12.6,5.67-12.6,12.6c0,6.93,5.67,12.61,12.6,12.61c6.93,0,12.61-5.67,12.61-12.61
		C1038.63,1257.35,1032.96,1251.67,1026.03,1251.67z M1026.03,1271.26c-3.88,0-6.98-3.1-6.98-6.98c0-3.88,3.1-6.98,6.98-6.98
		c3.88,0,6.98,3.1,6.98,6.98C1033.01,1268.16,1029.91,1271.26,1026.03,1271.26z"/>
	<radialGradient id="SVGID_25_" cx="1071.4706" cy="515.2353" r="743.2375" gradientUnits="userSpaceOnUse">
		<stop  offset="0" style="stop-color:#FFFBCC"/>
		<stop  offset="0.1171" style="stop-color:#FBEEB7"/>
		<stop  offset="0.3487" style="stop-color:#EFD88C"/>
		<stop  offset="0.3708" style="stop-color:#EED688"/>
		<stop  offset="0.6854" style="stop-color:#EBBB10"/>
		<stop  offset="1" style="stop-color:#C3922E"/>
	</radialGradient>
	<rect x="1014.68" y="1280.47" class="st24" width="22.4" height="5.62"/>
	<radialGradient id="SVGID_26_" cx="1071.4706" cy="515.2353" r="743.2375" gradientUnits="userSpaceOnUse">
		<stop  offset="0" style="stop-color:#FFFBCC"/>
		<stop  offset="0.1171" style="stop-color:#FBEEB7"/>
		<stop  offset="0.3487" style="stop-color:#EFD88C"/>
		<stop  offset="0.3708" style="stop-color:#EED688"/>
		<stop  offset="0.6854" style="stop-color:#EBBB10"/>
		<stop  offset="1" style="stop-color:#C3922E"/>
	</radialGradient>
	<path class="st25" d="M1066.41,1252.16h-11.3v5.67l5.38,8.48h-5.38v19.78h5.67v-14.16h5.62c0,0,11.3,0,11.3-9.89
		C1077.71,1252.16,1066.41,1252.16,1066.41,1252.16z M1067.14,1266.27l-5.28-8.44h4.56c0,0,5.67,0,5.67,4.22
		C1072.09,1265.35,1068.65,1266.07,1067.14,1266.27z"/>
	<radialGradient id="SVGID_27_" cx="1071.4706" cy="515.2353" r="743.2375" gradientUnits="userSpaceOnUse">
		<stop  offset="0" style="stop-color:#FFFBCC"/>
		<stop  offset="0.1171" style="stop-color:#FBEEB7"/>
		<stop  offset="0.3487" style="stop-color:#EFD88C"/>
		<stop  offset="0.3708" style="stop-color:#EED688"/>
		<stop  offset="0.6854" style="stop-color:#EBBB10"/>
		<stop  offset="1" style="stop-color:#C3922E"/>
	</radialGradient>
	<polygon class="st26" points="1093.08,1286.1 1115.72,1286.1 1115.72,1280.42 1098.75,1280.42 1098.75,1271.94 1112.86,1271.94 
		1112.86,1266.31 1098.75,1266.31 1098.75,1257.83 1115.72,1257.83 1115.72,1252.16 1093.08,1252.16 	"/>
	<radialGradient id="SVGID_28_" cx="1071.4706" cy="515.2353" r="743.2375" gradientUnits="userSpaceOnUse">
		<stop  offset="0" style="stop-color:#FFFBCC"/>
		<stop  offset="0.1171" style="stop-color:#FBEEB7"/>
		<stop  offset="0.3487" style="stop-color:#EFD88C"/>
		<stop  offset="0.3708" style="stop-color:#EED688"/>
		<stop  offset="0.6854" style="stop-color:#EBBB10"/>
		<stop  offset="1" style="stop-color:#C3922E"/>
	</radialGradient>
	<path class="st27" d="M1153.97,1262.05c0-9.89-11.34-9.89-11.34-9.89h-11.3v5.67l5.38,8.48h-5.38v19.78h5.67v-14.16h3.25
		l8.82,14.16h6.64l-9.21-14.74C1149.8,1270.44,1153.97,1268.06,1153.97,1262.05z M1138.07,1257.83h4.56c0,0,5.67,0,5.67,4.22
		c0,3.34-3.44,4.07-4.95,4.22L1138.07,1257.83z"/>
	<radialGradient id="SVGID_29_" cx="1071.4706" cy="515.2353" r="743.2375" gradientUnits="userSpaceOnUse">
		<stop  offset="0" style="stop-color:#FFFBCC"/>
		<stop  offset="0.1171" style="stop-color:#FBEEB7"/>
		<stop  offset="0.3487" style="stop-color:#EFD88C"/>
		<stop  offset="0.3708" style="stop-color:#EED688"/>
		<stop  offset="0.6854" style="stop-color:#EBBB10"/>
		<stop  offset="1" style="stop-color:#C3922E"/>
	</radialGradient>
	<polygon class="st28" points="1167.79,1257.35 1174.92,1257.35 1174.92,1286.1 1180.54,1286.1 1180.54,1257.35 1187.67,1257.35 
		1187.67,1252.16 1167.79,1252.16 	"/>
	<radialGradient id="SVGID_30_" cx="1071.4706" cy="515.2353" r="743.2375" gradientUnits="userSpaceOnUse">
		<stop  offset="0" style="stop-color:#FFFBCC"/>
		<stop  offset="0.1171" style="stop-color:#FBEEB7"/>
		<stop  offset="0.3487" style="stop-color:#EFD88C"/>
		<stop  offset="0.3708" style="stop-color:#EED688"/>
		<stop  offset="0.6854" style="stop-color:#EBBB10"/>
		<stop  offset="1" style="stop-color:#C3922E"/>
	</radialGradient>
	<polygon class="st29" points="1209.49,1257.35 1213.27,1257.35 1213.27,1252.16 1200.04,1252.16 1200.04,1257.35 1203.82,1257.35 
		1203.82,1280.91 1199.84,1280.91 1199.84,1286.1 1213.46,1286.1 1213.46,1280.91 1209.49,1280.91 	"/>
	<radialGradient id="SVGID_31_" cx="1071.4706" cy="515.2353" r="743.2375" gradientUnits="userSpaceOnUse">
		<stop  offset="0" style="stop-color:#FFFBCC"/>
		<stop  offset="0.1171" style="stop-color:#FBEEB7"/>
		<stop  offset="0.3487" style="stop-color:#EFD88C"/>
		<stop  offset="0.3708" style="stop-color:#EED688"/>
		<stop  offset="0.6854" style="stop-color:#EBBB10"/>
		<stop  offset="1" style="stop-color:#C3922E"/>
	</radialGradient>
	<polygon class="st30" points="1228.74,1286.1 1251.38,1286.1 1251.38,1280.42 1234.41,1280.42 1234.41,1271.94 1248.52,1271.94 
		1248.52,1266.31 1234.41,1266.31 1234.41,1257.83 1251.38,1257.83 1251.38,1252.16 1228.74,1252.16 	"/>
	<radialGradient id="SVGID_32_" cx="1071.4706" cy="515.2353" r="743.2375" gradientUnits="userSpaceOnUse">
		<stop  offset="0" style="stop-color:#FFFBCC"/>
		<stop  offset="0.1171" style="stop-color:#FBEEB7"/>
		<stop  offset="0.3487" style="stop-color:#EFD88C"/>
		<stop  offset="0.3708" style="stop-color:#EED688"/>
		<stop  offset="0.6854" style="stop-color:#EBBB10"/>
		<stop  offset="1" style="stop-color:#C3922E"/>
	</radialGradient>
	<path class="st31" d="M1281.39,1267.48c-2.42-1.12-4.8-1.12-5.04-1.12c-2.52,0-4.95-1.5-4.95-4.31c0-3.15,2.28-4.7,4.95-4.7
		c2.57,0,4.75,1.26,4.85,4.07h5.62c-0.1-5.77-4.6-9.74-10.47-9.74c-5.48,0-10.62,3.93-10.62,10.37c0,4.02,1.99,7.03,5.53,8.68
		c2.47,1.11,4.8,1.11,5.09,1.11c2.28,0.1,4.94,1.84,4.94,4.7c0,2.67-2.33,4.36-4.94,4.36c-2.52,0-4.85-1.41-4.95-4.22h-5.67
		c0.1,6.35,4.75,9.74,10.62,9.89c5.48,0,10.57-3.54,10.57-10.04C1286.92,1272.52,1284.98,1269.13,1281.39,1267.48z"/>
	<radialGradient id="SVGID_33_" cx="1071.4706" cy="515.2353" r="743.2375" gradientUnits="userSpaceOnUse">
		<stop  offset="0" style="stop-color:#FFFBCC"/>
		<stop  offset="0.1171" style="stop-color:#FBEEB7"/>
		<stop  offset="0.3487" style="stop-color:#EFD88C"/>
		<stop  offset="0.3708" style="stop-color:#EED688"/>
		<stop  offset="0.6854" style="stop-color:#EBBB10"/>
		<stop  offset="1" style="stop-color:#C3922E"/>
	</radialGradient>
	<polygon class="st32" points="1000,712.5 533.9,982.69 556.47,1021.62 1000,764.51 1443.53,1021.62 1466.1,982.69 	"/>
	<radialGradient id="SVGID_34_" cx="1071.4706" cy="515.2353" r="743.2375" gradientUnits="userSpaceOnUse">
		<stop  offset="0" style="stop-color:#FFFBCC"/>
		<stop  offset="0.1171" style="stop-color:#FBEEB7"/>
		<stop  offset="0.3487" style="stop-color:#EFD88C"/>
		<stop  offset="0.3708" style="stop-color:#EED688"/>
		<stop  offset="0.6854" style="stop-color:#EBBB10"/>
		<stop  offset="1" style="stop-color:#C3922E"/>
	</radialGradient>
	<polygon class="st33" points="1354.21,983.61 1355.32,982.04 1311.14,956.43 1310.03,958 1262.52,1024.73 1184.32,915.51 
		1121.85,915.51 1236.74,1076.71 1236.74,1221.31 1265.73,1221.31 1287.86,1221.31 1314.33,1221.31 1314.33,1202.25 
		1287.86,1202.25 1287.86,1192.57 1330.21,1192.57 1330.21,1173.51 1287.86,1173.51 1287.86,1163.84 1314.33,1163.84 
		1314.33,1144.78 1287.86,1144.78 1287.86,1076.71 	"/>
</g>
</svg>
